<svg xmlns="http://www.w3.org/2000/svg" xmlns:xlink="http://www.w3.org/1999/xlink" width="300" zoomAndPan="magnify" viewBox="0 0 224.87999 60" height="80" preserveAspectRatio="xMidYMid meet" version="1.0"><defs><clipPath id="c386450ea8"><path d="M 0 0.015625 L 224.761719 0.015625 L 224.761719 59.984375 L 0 59.984375 Z M 0 0.015625 " clip-rule="nonzero"/></clipPath><clipPath id="609b96c98d"><path d="M 18 10.605469 L 39 10.605469 L 39 31 L 18 31 Z M 18 10.605469 " clip-rule="nonzero"/></clipPath><clipPath id="a0478df2da"><path d="M 10.503906 26 L 50 26 L 50 50 L 10.503906 50 Z M 10.503906 26 " clip-rule="nonzero"/></clipPath><clipPath id="74b2793a7c"><path d="M 114 12 L 129 12 L 129 54.082031 L 114 54.082031 Z M 114 12 " clip-rule="nonzero"/></clipPath><clipPath id="b59c4d9c51"><path d="M 205 35 L 214.398438 35 L 214.398438 46 L 205 46 Z M 205 35 " clip-rule="nonzero"/></clipPath></defs><g clip-path="url(#c386450ea8)"><path fill="#ffffff" d="M 0 0.015625 L 224.878906 0.015625 L 224.878906 59.984375 L 0 59.984375 Z M 0 0.015625 " fill-opacity="1" fill-rule="nonzero"/><path fill="#3d393b" d="M 0 0.015625 L 224.878906 0.015625 L 224.878906 59.984375 L 0 59.984375 Z M 0 0.015625 " fill-opacity="1" fill-rule="nonzero"/></g><g clip-path="url(#609b96c98d)"><path fill="#9b00e4" d="M 22.109375 10.605469 C 22.269531 11.25 22.425781 11.890625 22.589844 12.535156 C 22.859375 13.574219 23.136719 14.613281 23.417969 15.691406 C 23.492188 15.625 23.550781 15.574219 23.609375 15.519531 C 24.96875 14.199219 26.582031 13.382812 28.449219 13.09375 C 32.910156 12.402344 37.175781 15.214844 38.308594 19.605469 C 38.480469 20.269531 38.554688 20.964844 38.589844 21.644531 C 38.636719 22.605469 38.601562 23.566406 38.601562 24.527344 C 38.601562 24.585938 38.59375 24.648438 38.59375 24.664062 C 37.847656 24.851562 37.121094 25 36.417969 25.222656 C 35.195312 25.605469 34.140625 26.273438 33.238281 27.1875 C 32.179688 28.265625 31.113281 29.339844 30.042969 30.425781 C 29.972656 30.375 29.925781 30.347656 29.886719 30.308594 C 28.988281 29.414062 28.078125 28.535156 27.195312 27.625 C 25.660156 26.039062 23.792969 25.101562 21.628906 24.738281 C 21.414062 24.703125 21.195312 24.671875 20.980469 24.636719 C 20.960938 22.652344 20.761719 20.660156 21.503906 18.753906 C 21.574219 18.578125 21.644531 18.402344 21.734375 18.1875 C 20.492188 18.414062 19.28125 18.636719 18.019531 18.871094 L 18.019531 16.339844 C 19.03125 16.527344 20.0625 16.722656 21.09375 16.914062 C 21.429688 16.976562 21.765625 17.023438 22.09375 17.101562 C 22.273438 17.148438 22.367188 17.105469 22.425781 16.910156 C 21.394531 15.984375 20.355469 15.046875 19.3125 14.101562 C 20.234375 12.929688 21.148438 11.769531 22.0625 10.605469 C 22.078125 10.605469 22.09375 10.605469 22.109375 10.605469 Z M 29.832031 18.984375 C 28.835938 18.984375 27.835938 18.980469 26.839844 18.984375 C 26.625 18.988281 26.410156 19 26.199219 19.027344 C 24.945312 19.191406 23.992188 20.355469 24.058594 21.640625 C 24.125 22.890625 25.269531 24.011719 26.496094 24.035156 C 27.082031 24.046875 27.59375 23.847656 28.066406 23.519531 C 28.554688 23.179688 29.082031 22.933594 29.683594 22.894531 C 30.402344 22.847656 31.011719 23.125 31.566406 23.550781 C 32.136719 23.984375 32.769531 24.121094 33.46875 23.984375 C 34.652344 23.757812 35.597656 22.546875 35.5 21.382812 C 35.382812 19.960938 34.324219 18.984375 32.898438 18.984375 C 31.875 18.984375 30.855469 18.984375 29.832031 18.984375 Z M 29.832031 18.984375 " fill-opacity="1" fill-rule="nonzero"/></g><g clip-path="url(#a0478df2da)"><path fill="#9b00e4" d="M 29.121094 31.539062 C 27.828125 32.863281 26.550781 34.160156 25.25 35.488281 C 24.4375 34.671875 23.609375 33.894531 22.851562 33.054688 C 21.972656 32.078125 20.886719 31.800781 19.625 31.859375 C 17.769531 31.945312 15.84375 34.277344 15.648438 35.835938 C 15.523438 36.816406 15.726562 37.703125 16.398438 38.417969 C 17.566406 39.65625 18.78125 40.855469 19.980469 42.066406 C 20.074219 42.160156 20.199219 42.21875 20.324219 42.308594 C 20.46875 42.152344 20.601562 42.003906 20.742188 41.855469 C 22.625 39.925781 24.492188 37.984375 26.386719 36.066406 C 28.96875 33.457031 31.582031 30.878906 34.164062 28.269531 C 35.28125 27.136719 36.632812 26.503906 38.171875 26.226562 C 39.230469 26.039062 40.292969 25.96875 41.363281 26.089844 C 43.160156 26.296875 44.753906 26.976562 46.089844 28.203125 C 47.648438 29.636719 48.765625 31.347656 49.21875 33.445312 C 49.625 35.332031 49.410156 37.179688 48.714844 38.96875 C 48.4375 39.679688 47.976562 40.28125 47.453125 40.828125 C 45.421875 42.945312 43.386719 45.054688 41.339844 47.15625 C 40.582031 47.933594 39.796875 48.679688 38.976562 49.488281 C 36.019531 46.476562 33.023438 43.429688 30.011719 40.363281 C 26.917969 43.328125 23.894531 46.226562 20.84375 49.152344 C 19.761719 48.144531 18.660156 47.191406 17.636719 46.15625 C 15.835938 44.335938 14.070312 42.480469 12.320312 40.609375 C 11.25 39.460938 10.664062 38.066406 10.558594 36.496094 C 10.394531 33.96875 10.964844 31.625 12.507812 29.585938 C 13.941406 27.691406 15.859375 26.546875 18.203125 26.164062 C 20.632812 25.765625 22.914062 26.15625 24.964844 27.578125 C 25.339844 27.835938 25.691406 28.144531 26.015625 28.464844 C 27.007812 29.433594 27.984375 30.421875 28.964844 31.398438 C 29.023438 31.457031 29.085938 31.503906 29.121094 31.539062 Z M 39.855469 42.179688 C 40.808594 41.210938 41.75 40.257812 42.679688 39.292969 C 43.027344 38.9375 43.367188 38.566406 43.683594 38.183594 C 44.460938 37.238281 44.582031 36.203125 44.058594 35.101562 C 43.726562 34.394531 43.261719 33.773438 42.765625 33.171875 C 41.324219 31.445312 38.597656 31.402344 37.089844 33.035156 C 36.261719 33.929688 35.359375 34.753906 34.484375 35.605469 C 34.246094 35.835938 33.988281 36.042969 33.71875 36.277344 C 35.773438 38.253906 37.8125 40.210938 39.855469 42.183594 Z M 39.855469 42.179688 " fill-opacity="1" fill-rule="nonzero"/></g><path fill="#9b00e4" d="M 31.394531 22.117188 C 32.152344 21.652344 32.898438 21.195312 33.640625 20.738281 C 33.992188 21.050781 34.09375 21.582031 33.910156 22.078125 C 33.703125 22.648438 33.277344 22.953125 32.671875 22.96875 C 32.097656 22.984375 31.648438 22.691406 31.394531 22.117188 Z M 31.394531 22.117188 " fill-opacity="1" fill-rule="nonzero"/><path fill="#9b00e4" d="M 25.777344 20.695312 C 26.546875 21.167969 27.289062 21.621094 28.046875 22.085938 C 27.769531 22.574219 27.417969 22.917969 26.84375 22.9375 C 26.277344 22.957031 25.84375 22.707031 25.585938 22.203125 C 25.316406 21.675781 25.453125 21.179688 25.777344 20.695312 Z M 25.777344 20.695312 " fill-opacity="1" fill-rule="nonzero"/><path fill="#ffffff" d="M 76.964844 16.039062 L 82.398438 16.039062 L 82.398438 45.59375 L 77.890625 45.59375 L 61.632812 25.578125 L 61.632812 45.59375 L 56.195312 45.59375 L 56.195312 16.039062 L 60.703125 16.039062 L 76.964844 36.050781 Z M 76.964844 16.039062 " fill-opacity="1" fill-rule="nonzero"/><path fill="#ffffff" d="M 89.5 19.332031 C 87.5625 19.332031 86.128906 17.9375 86.128906 16.164062 C 86.128906 14.390625 87.5625 12.996094 89.5 12.996094 C 91.4375 12.996094 92.871094 14.304688 92.871094 16.039062 C 92.871094 17.894531 91.480469 19.332031 89.5 19.332031 Z M 86.847656 45.59375 L 86.847656 23.046875 L 92.113281 23.046875 L 92.113281 45.59375 Z M 86.847656 45.59375 " fill-opacity="1" fill-rule="nonzero"/><path fill="#ffffff" d="M 108.839844 22.792969 C 114.230469 22.792969 118.234375 25.875 118.234375 32.671875 L 118.234375 45.59375 L 112.96875 45.59375 L 112.96875 33.347656 C 112.96875 29.335938 110.988281 27.394531 107.617188 27.394531 C 103.867188 27.394531 101.339844 29.675781 101.339844 34.195312 L 101.339844 45.59375 L 96.074219 45.59375 L 96.074219 23.046875 L 101.089844 23.046875 L 101.089844 25.960938 C 102.816406 23.890625 105.554688 22.792969 108.839844 22.792969 Z M 108.839844 22.792969 " fill-opacity="1" fill-rule="nonzero"/><g clip-path="url(#74b2793a7c)"><path fill="#ffffff" d="M 124.828125 19.332031 C 122.890625 19.332031 121.460938 17.9375 121.460938 16.164062 C 121.460938 14.390625 122.890625 12.996094 124.828125 12.996094 C 126.765625 12.996094 128.199219 14.304688 128.199219 16.039062 C 128.199219 17.894531 126.808594 19.332031 124.828125 19.332031 Z M 119.648438 54.082031 C 117.710938 54.082031 115.8125 53.699219 114.59375 52.773438 L 116.109375 48.84375 C 116.910156 49.4375 118.003906 49.730469 119.183594 49.730469 C 121.121094 49.730469 122.21875 48.550781 122.21875 46.144531 L 122.21875 23.046875 L 127.484375 23.046875 L 127.484375 46.015625 C 127.484375 50.957031 124.660156 54.082031 119.648438 54.082031 Z M 119.648438 54.082031 " fill-opacity="1" fill-rule="nonzero"/></g><path fill="#ffffff" d="M 140.035156 22.792969 C 146.519531 22.792969 150.269531 25.875 150.269531 32.378906 L 150.269531 45.59375 L 145.300781 45.59375 L 145.300781 42.847656 C 144.035156 44.792969 141.59375 45.890625 138.222656 45.890625 C 133.082031 45.890625 129.839844 43.0625 129.839844 39.132812 C 129.839844 35.375 132.367188 32.421875 139.191406 32.421875 L 145.003906 32.421875 L 145.003906 32.082031 C 145.003906 29 143.152344 27.183594 139.402344 27.183594 C 136.875 27.183594 134.261719 28.027344 132.578125 29.421875 L 130.511719 25.578125 C 132.914062 23.722656 136.410156 22.792969 140.035156 22.792969 Z M 139.316406 42.046875 C 141.886719 42.046875 144.121094 40.863281 145.003906 38.542969 L 145.003906 35.925781 L 139.570312 35.925781 C 135.988281 35.925781 135.019531 37.277344 135.019531 38.921875 C 135.019531 40.824219 136.621094 42.046875 139.316406 42.046875 Z M 139.316406 42.046875 " fill-opacity="1" fill-rule="nonzero"/><path fill="#9b00e4" d="M 177.433594 16.222656 L 172.898438 29.820312 L 170.863281 29.820312 L 167.164062 18.960938 L 163.460938 29.820312 L 161.386719 29.820312 L 156.851562 16.222656 L 158.847656 16.222656 L 162.511719 27.273438 L 166.328125 16.222656 L 168.113281 16.222656 L 171.851562 27.332031 L 175.59375 16.222656 Z M 177.433594 16.222656 " fill-opacity="1" fill-rule="nonzero"/><path fill="#9b00e4" d="M 186.679688 24.730469 C 186.679688 24.875 186.667969 25.0625 186.640625 25.292969 L 178.308594 25.292969 C 178.425781 26.199219 178.820312 26.933594 179.492188 27.488281 C 180.175781 28.03125 181.023438 28.304688 182.03125 28.304688 C 183.257812 28.304688 184.246094 27.890625 184.996094 27.0625 L 186.023438 28.265625 C 185.558594 28.808594 184.976562 29.222656 184.277344 29.507812 C 183.59375 29.792969 182.824219 29.9375 181.972656 29.9375 C 180.886719 29.9375 179.925781 29.714844 179.085938 29.277344 C 178.246094 28.824219 177.59375 28.195312 177.128906 27.390625 C 176.675781 26.589844 176.449219 25.683594 176.449219 24.671875 C 176.449219 23.675781 176.667969 22.777344 177.109375 21.972656 C 177.5625 21.171875 178.175781 20.546875 178.949219 20.109375 C 179.738281 19.65625 180.621094 19.429688 181.605469 19.429688 C 182.585938 19.429688 183.457031 19.65625 184.21875 20.109375 C 184.996094 20.546875 185.59375 21.171875 186.023438 21.972656 C 186.460938 22.777344 186.679688 23.695312 186.679688 24.730469 Z M 181.605469 21 C 180.710938 21 179.964844 21.273438 179.355469 21.816406 C 178.761719 22.359375 178.414062 23.074219 178.308594 23.953125 L 184.898438 23.953125 C 184.796875 23.085938 184.441406 22.378906 183.832031 21.835938 C 183.238281 21.28125 182.496094 21 181.605469 21 Z M 181.605469 21 " fill-opacity="1" fill-rule="nonzero"/><path fill="#9b00e4" d="M 193.351562 19.429688 C 194.347656 19.429688 195.238281 19.648438 196.027344 20.089844 C 196.816406 20.527344 197.429688 21.144531 197.867188 21.933594 C 198.320312 22.722656 198.546875 23.636719 198.546875 24.671875 C 198.546875 25.707031 198.320312 26.628906 197.867188 27.429688 C 197.429688 28.21875 196.816406 28.835938 196.027344 29.277344 C 195.238281 29.714844 194.347656 29.9375 193.351562 29.9375 C 192.589844 29.9375 191.894531 29.789062 191.261719 29.488281 C 190.628906 29.191406 190.105469 28.757812 189.691406 28.1875 L 189.691406 29.820312 L 187.90625 29.820312 L 187.90625 15.40625 L 189.769531 15.40625 L 189.769531 21.078125 C 190.179688 20.535156 190.699219 20.128906 191.320312 19.855469 C 191.9375 19.570312 192.617188 19.429688 193.351562 19.429688 Z M 193.199219 28.304688 C 193.859375 28.304688 194.445312 28.15625 194.960938 27.859375 C 195.492188 27.546875 195.90625 27.121094 196.203125 26.574219 C 196.511719 26.019531 196.667969 25.386719 196.667969 24.671875 C 196.667969 23.960938 196.511719 23.332031 196.203125 22.789062 C 195.90625 22.230469 195.492188 21.804688 194.960938 21.507812 C 194.445312 21.207031 193.859375 21.058594 193.199219 21.058594 C 192.554688 21.058594 191.964844 21.207031 191.4375 21.507812 C 190.90625 21.804688 190.492188 22.230469 190.195312 22.789062 C 189.898438 23.332031 189.75 23.960938 189.75 24.671875 C 189.75 25.386719 189.898438 26.019531 190.195312 26.574219 C 190.492188 27.121094 190.90625 27.546875 191.4375 27.859375 C 191.964844 28.15625 192.554688 28.304688 193.199219 28.304688 Z M 193.199219 28.304688 " fill-opacity="1" fill-rule="nonzero"/><path fill="#9b00e4" d="M 162.21875 45.859375 C 161.199219 45.859375 160.210938 45.703125 159.253906 45.394531 C 158.3125 45.070312 157.570312 44.65625 157.027344 44.152344 L 157.746094 42.636719 C 158.261719 43.101562 158.921875 43.484375 159.722656 43.78125 C 160.535156 44.066406 161.367188 44.207031 162.21875 44.207031 C 163.34375 44.207031 164.183594 44.019531 164.738281 43.644531 C 165.296875 43.257812 165.574219 42.746094 165.574219 42.109375 C 165.574219 41.644531 165.417969 41.269531 165.109375 40.984375 C 164.8125 40.6875 164.4375 40.460938 163.984375 40.304688 C 163.542969 40.148438 162.917969 39.976562 162.105469 39.78125 C 161.082031 39.535156 160.257812 39.289062 159.625 39.042969 C 159.003906 38.796875 158.46875 38.421875 158.015625 37.914062 C 157.578125 37.398438 157.355469 36.707031 157.355469 35.835938 C 157.355469 35.113281 157.542969 34.457031 157.917969 33.875 C 158.304688 33.292969 158.886719 32.828125 159.664062 32.476562 C 160.4375 32.128906 161.398438 31.953125 162.550781 31.953125 C 163.351562 31.953125 164.140625 32.054688 164.914062 32.265625 C 165.6875 32.472656 166.355469 32.769531 166.910156 33.15625 L 166.269531 34.710938 C 165.703125 34.347656 165.09375 34.078125 164.449219 33.894531 C 163.804688 33.699219 163.171875 33.605469 162.550781 33.605469 C 161.453125 33.605469 160.625 33.804688 160.070312 34.207031 C 159.527344 34.609375 159.253906 35.125 159.253906 35.761719 C 159.253906 36.226562 159.410156 36.609375 159.722656 36.90625 C 160.03125 37.191406 160.410156 37.417969 160.863281 37.585938 C 161.328125 37.742188 161.957031 37.910156 162.742188 38.089844 C 163.765625 38.335938 164.585938 38.582031 165.203125 38.828125 C 165.824219 39.074219 166.355469 39.449219 166.792969 39.957031 C 167.246094 40.460938 167.472656 41.140625 167.472656 41.996094 C 167.472656 42.707031 167.277344 43.359375 166.890625 43.957031 C 166.503906 44.539062 165.914062 45.003906 165.128906 45.355469 C 164.339844 45.691406 163.371094 45.859375 162.21875 45.859375 Z M 162.21875 45.859375 " fill-opacity="1" fill-rule="nonzero"/><path fill="#9b00e4" d="M 174.449219 45.101562 C 174.179688 45.335938 173.84375 45.515625 173.441406 45.644531 C 173.042969 45.761719 172.628906 45.820312 172.203125 45.820312 C 171.167969 45.820312 170.367188 45.542969 169.800781 44.984375 C 169.230469 44.429688 168.945312 43.632812 168.945312 42.597656 L 168.945312 36.945312 L 167.203125 36.945312 L 167.203125 35.410156 L 168.945312 35.410156 L 168.945312 33.15625 L 170.808594 33.15625 L 170.808594 35.410156 L 173.75 35.410156 L 173.75 36.945312 L 170.808594 36.945312 L 170.808594 42.519531 C 170.808594 43.074219 170.941406 43.503906 171.214844 43.800781 C 171.5 44.097656 171.898438 44.246094 172.417969 44.246094 C 172.984375 44.246094 173.46875 44.085938 173.867188 43.761719 Z M 174.449219 45.101562 " fill-opacity="1" fill-rule="nonzero"/><path fill="#9b00e4" d="M 179.398438 45.820312 C 178.378906 45.820312 177.460938 45.59375 176.648438 45.140625 C 175.835938 44.6875 175.195312 44.066406 174.730469 43.277344 C 174.277344 42.472656 174.050781 41.566406 174.050781 40.558594 C 174.050781 39.546875 174.277344 38.648438 174.730469 37.859375 C 175.195312 37.054688 175.835938 36.433594 176.648438 35.992188 C 177.460938 35.539062 178.378906 35.3125 179.398438 35.3125 C 180.421875 35.3125 181.332031 35.539062 182.132812 35.992188 C 182.949219 36.433594 183.582031 37.054688 184.03125 37.859375 C 184.496094 38.648438 184.730469 39.546875 184.730469 40.558594 C 184.730469 41.566406 184.496094 42.472656 184.03125 43.277344 C 183.582031 44.066406 182.949219 44.6875 182.132812 45.140625 C 181.332031 45.59375 180.421875 45.820312 179.398438 45.820312 Z M 179.398438 44.191406 C 180.058594 44.191406 180.648438 44.039062 181.164062 43.742188 C 181.691406 43.433594 182.105469 43.003906 182.40625 42.460938 C 182.703125 41.902344 182.851562 41.269531 182.851562 40.558594 C 182.851562 39.84375 182.703125 39.21875 182.40625 38.671875 C 182.105469 38.117188 181.691406 37.6875 181.164062 37.390625 C 180.648438 37.09375 180.058594 36.945312 179.398438 36.945312 C 178.742188 36.945312 178.148438 37.09375 177.617188 37.390625 C 177.101562 37.6875 176.6875 38.117188 176.378906 38.671875 C 176.082031 39.21875 175.933594 39.84375 175.933594 40.558594 C 175.933594 41.269531 176.082031 41.902344 176.378906 42.460938 C 176.6875 43.003906 177.101562 43.433594 177.617188 43.742188 C 178.148438 44.039062 178.742188 44.191406 179.398438 44.191406 Z M 179.398438 44.191406 " fill-opacity="1" fill-rule="nonzero"/><path fill="#9b00e4" d="M 187.726562 37.140625 C 188.050781 36.542969 188.53125 36.089844 189.164062 35.78125 C 189.796875 35.46875 190.566406 35.3125 191.46875 35.3125 L 191.46875 37.121094 C 191.363281 37.105469 191.222656 37.101562 191.042969 37.101562 C 190.035156 37.101562 189.238281 37.40625 188.660156 38.011719 C 188.089844 38.609375 187.808594 39.464844 187.808594 40.578125 L 187.808594 45.703125 L 185.945312 45.703125 L 185.945312 35.410156 L 187.726562 35.410156 Z M 187.726562 37.140625 " fill-opacity="1" fill-rule="nonzero"/><path fill="#9b00e4" d="M 192.40625 35.410156 L 194.265625 35.410156 L 194.265625 45.703125 L 192.40625 45.703125 Z M 193.335938 33.429688 C 192.972656 33.429688 192.667969 33.3125 192.425781 33.078125 C 192.191406 32.847656 192.074219 32.5625 192.074219 32.226562 C 192.074219 31.886719 192.191406 31.601562 192.425781 31.371094 C 192.667969 31.125 192.972656 31 193.335938 31 C 193.695312 31 193.996094 31.117188 194.226562 31.351562 C 194.472656 31.570312 194.59375 31.847656 194.59375 32.1875 C 194.59375 32.535156 194.472656 32.832031 194.226562 33.078125 C 193.996094 33.3125 193.695312 33.429688 193.335938 33.429688 Z M 193.335938 33.429688 " fill-opacity="1" fill-rule="nonzero"/><path fill="#9b00e4" d="M 205.742188 40.617188 C 205.742188 40.757812 205.730469 40.945312 205.703125 41.179688 L 197.371094 41.179688 C 197.488281 42.085938 197.882812 42.816406 198.554688 43.375 C 199.238281 43.917969 200.085938 44.191406 201.089844 44.191406 C 202.320312 44.191406 203.308594 43.773438 204.058594 42.945312 L 205.082031 44.152344 C 204.621094 44.695312 204.039062 45.109375 203.339844 45.394531 C 202.65625 45.679688 201.886719 45.820312 201.035156 45.820312 C 199.949219 45.820312 198.988281 45.601562 198.144531 45.160156 C 197.308594 44.707031 196.65625 44.078125 196.191406 43.277344 C 195.738281 42.472656 195.511719 41.566406 195.511719 40.558594 C 195.511719 39.558594 195.730469 38.660156 196.171875 37.859375 C 196.621094 37.054688 197.238281 36.433594 198.011719 35.992188 C 198.796875 35.539062 199.683594 35.3125 200.664062 35.3125 C 201.648438 35.3125 202.519531 35.539062 203.28125 35.992188 C 204.058594 36.433594 204.65625 37.054688 205.082031 37.859375 C 205.523438 38.660156 205.742188 39.578125 205.742188 40.617188 Z M 200.664062 36.886719 C 199.773438 36.886719 199.023438 37.160156 198.417969 37.703125 C 197.824219 38.246094 197.476562 38.957031 197.371094 39.839844 L 203.960938 39.839844 C 203.859375 38.972656 203.503906 38.265625 202.894531 37.722656 C 202.300781 37.164062 201.558594 36.886719 200.664062 36.886719 Z M 200.664062 36.886719 " fill-opacity="1" fill-rule="nonzero"/><g clip-path="url(#b59c4d9c51)"><path fill="#9b00e4" d="M 209.914062 45.820312 C 209.074219 45.820312 208.265625 45.710938 207.492188 45.492188 C 206.71875 45.257812 206.109375 44.964844 205.671875 44.617188 L 206.445312 43.140625 C 206.898438 43.464844 207.445312 43.722656 208.09375 43.917969 C 208.738281 44.113281 209.394531 44.207031 210.050781 44.207031 C 211.679688 44.207031 212.492188 43.742188 212.492188 42.808594 C 212.492188 42.5 212.382812 42.253906 212.164062 42.074219 C 211.945312 41.890625 211.664062 41.761719 211.332031 41.683594 C 211.007812 41.59375 210.542969 41.496094 209.933594 41.390625 C 209.109375 41.261719 208.429688 41.113281 207.898438 40.945312 C 207.382812 40.777344 206.9375 40.492188 206.5625 40.089844 C 206.1875 39.691406 206 39.125 206 38.402344 C 206 37.46875 206.386719 36.726562 207.164062 36.167969 C 207.9375 35.597656 208.976562 35.3125 210.285156 35.3125 C 210.96875 35.3125 211.652344 35.398438 212.339844 35.566406 C 213.023438 35.734375 213.585938 35.960938 214.023438 36.246094 L 213.230469 37.722656 C 212.390625 37.179688 211.402344 36.90625 210.261719 36.90625 C 209.476562 36.90625 208.875 37.035156 208.460938 37.292969 C 208.050781 37.554688 207.839844 37.894531 207.839844 38.324219 C 207.839844 38.660156 207.957031 38.925781 208.191406 39.121094 C 208.421875 39.3125 208.707031 39.457031 209.042969 39.546875 C 209.394531 39.636719 209.875 39.742188 210.496094 39.859375 C 211.324219 40 211.988281 40.15625 212.492188 40.324219 C 213.007812 40.480469 213.449219 40.75 213.8125 41.140625 C 214.171875 41.527344 214.351562 42.074219 214.351562 42.773438 C 214.351562 43.703125 213.953125 44.449219 213.152344 45.003906 C 212.363281 45.550781 211.285156 45.820312 209.914062 45.820312 Z M 209.914062 45.820312 " fill-opacity="1" fill-rule="nonzero"/></g></svg>